<?xml version="1.0" encoding="UTF-8"?>
<svg width="79px" height="123px" viewBox="0 0 79 123" version="1.1" xmlns="http://www.w3.org/2000/svg" xmlns:xlink="http://www.w3.org/1999/xlink">
    <!-- Generator: Sketch 49.1 (51147) - http://www.bohemiancoding.com/sketch -->
    <title>01_karo_ass</title>
    <desc>Created with Sketch.</desc>
    <defs></defs>
    <g id="Page-1" stroke="none" stroke-width="1" fill="none" fill-rule="evenodd">
        <g id="card_game_2-2" transform="translate(0.000000, -123.000000)">
            <g id="e-link" transform="translate(0.000000, 123.000000)" fill="#FFFFFF" fill-rule="nonzero" stroke="#000000" stroke-width="1.5">
                <path d="M78.25,117.25 C78.25,120.012 76.012,122.25 73.25,122.25 L5.75,122.25 C2.989,122.25 0.75,120.012 0.75,117.25 L0.75,5.75 C0.75,2.988 2.989,0.75 5.75,0.75 L73.25,0.75 C76.012,0.75 78.25,2.988 78.25,5.75 L78.25,117.25 Z" id="e"></path>
            </g>
            <g id="v-link" transform="translate(4.000000, 126.500000)" stroke="#DF0000">
                <g id="v">
                    <path d="M0,13.75 L3.5,13.75" id="Shape"></path>
                    <path d="M9,13.75 L5.5,13.75" id="Shape"></path>
                    <polyline id="Shape" points="1.5 13.75 4.5 0.5 7.5 13.75"></polyline>
                    <path d="M2.25,10.5 L6.75,10.5" id="Shape"></path>
                </g>
            </g>
            <g id="ai-link" transform="translate(66.000000, 228.500000)" stroke="#DF0000">
                <g id="ai">
                    <path d="M6.75,3.5 L2.25,3.5" id="Shape"></path>
                    <path d="M9,0.25 L5.5,0.25" id="Shape"></path>
                    <path d="M0,0.25 L3.5,0.25" id="Shape"></path>
                    <polyline id="Shape" points="7.5 0.25 4.5 13.5 1.5 0.25"></polyline>
                </g>
            </g>
            <g id="h-link" transform="translate(3.500000, 141.500000)" fill="#DF0000" fill-rule="nonzero">
                <path d="M6.985,3.375 C5.794,1.875 5,0.5 5,0.5 C5,0.5 4.206,1.875 3.015,3.375 C1.824,4.875 0.5,6 0.5,6 C0.5,6 1.824,7.125 3.015,8.625 C4.206,10.125 5,11.5 5,11.5 C5,11.5 5.794,10.125 6.985,8.625 C8.176,7.125 9.5,6 9.5,6 C9.5,6 8.177,4.875 6.985,3.375 Z" id="h"></path>
            </g>
            <g id="h-link" transform="translate(65.500000, 215.500000)" fill="#DF0000" fill-rule="nonzero">
                <path d="M6.985,3.375 C5.794,1.875 5,0.5 5,0.5 C5,0.5 4.206,1.875 3.015,3.375 C1.824,4.875 0.5,6 0.5,6 C0.5,6 1.824,7.125 3.015,8.625 C4.206,10.125 5,11.5 5,11.5 C5,11.5 5.794,10.125 6.985,8.625 C8.176,7.125 9.5,6 9.5,6 C9.5,6 8.177,4.875 6.985,3.375 Z" id="h"></path>
            </g>
            <g id="c-link" transform="translate(31.500000, 173.500000)" fill="#DF0000" fill-rule="nonzero">
                <path d="M11.529,5.989 C9.412,3.125 8,0.5 8,0.5 C8,0.5 6.588,3.125 4.471,5.989 C2.354,8.853 0,11 0,11 C0,11 2.353,13.147 4.471,16.012 C6.589,18.877 8,21.5 8,21.5 C8,21.5 9.412,18.875 11.529,16.012 C13.646,13.149 16,11 16,11 C16,11 13.647,8.852 11.529,5.989 Z" id="c"></path>
            </g>
        </g>
    </g>
</svg>