<?xml version="1.0" encoding="UTF-8"?>
<svg width="79px" height="123px" viewBox="0 0 79 123" version="1.1" xmlns="http://www.w3.org/2000/svg" xmlns:xlink="http://www.w3.org/1999/xlink">
    <!-- Generator: Sketch 49.1 (51147) - http://www.bohemiancoding.com/sketch -->
    <title>02_kreuz_zwei</title>
    <desc>Created with Sketch.</desc>
    <defs></defs>
    <g id="Page-1" stroke="none" stroke-width="1" fill="none" fill-rule="evenodd">
        <g id="card_game_2-2" transform="translate(-79.000000, 0.000000)">
            <g id="e-link" transform="translate(79.000000, 0.000000)" fill="#FFFFFF" fill-rule="nonzero" stroke="#000000" stroke-width="1.5">
                <path d="M78.25,117.25 C78.25,120.012 76.012,122.25 73.25,122.25 L5.75,122.25 C2.989,122.25 0.75,120.012 0.75,117.25 L0.75,5.75 C0.75,2.988 2.989,0.75 5.75,0.75 L73.25,0.75 C76.012,0.75 78.25,2.988 78.25,5.75 L78.25,117.25 Z" id="e"></path>
            </g>
            <g id="t-link" transform="translate(83.000000, 4.500000)" stroke="#000000">
                <g id="t">
                    <path d="M8.25,10.5 L8.25,12.75 L0.75,12.75 L0.75,11.5 C0.75,8.25 8.25,7.75 8.25,3.75 C8.25,1 7,0.25 4.5,0.25 C2,0.25 0.75,1.75 0.75,3.25" id="Shape"></path>
                </g>
            </g>
            <g id="ag-link" transform="translate(145.000000, 105.500000)" stroke="#000000">
                <g id="ag">
                    <path d="M0.75,2.5 L0.75,0.25 L8.25,0.25 L8.25,1.5 C8.25,4.75 0.75,5.25 0.75,9.25 C0.75,12 2,12.75 4.5,12.75 C7,12.75 8.25,11.25 8.25,9.75" id="Shape"></path>
                </g>
            </g>
            <g id="i-link" transform="translate(82.500000, 19.500000)" fill="#000000" fill-rule="nonzero">
                <path d="M6.137,4.545 C6.137,4.545 7.387,3.545 7.387,2.159 C7.387,1.347 6.665,0 5,0 C3.335,0 2.614,1.348 2.614,2.159 C2.614,3.545 3.864,4.545 3.864,4.545 C2.475,3.464 0,4.202 0,6.363 C0,7.445 0.884,8.636 2.273,8.636 C3.939,8.636 4.659,6.818 4.659,6.818 C4.659,6.818 4.87,8.89 3.636,10 L6.363,10 C5.129,8.891 5.341,6.818 5.341,6.818 C5.341,6.818 6.062,8.636 7.728,8.636 C9.117,8.636 10,7.445 10,6.363 C10,4.202 7.524,3.464 6.137,4.545 Z" id="i"></path>
            </g>
            <g id="i-link" transform="translate(149.500000, 98.500000) rotate(-180.000000) translate(-149.500000, -98.500000) translate(144.500000, 93.500000)" fill="#000000" fill-rule="nonzero">
                <path d="M6.137,4.545 C6.137,4.545 7.387,3.545 7.387,2.159 C7.387,1.347 6.665,0 5,0 C3.335,0 2.614,1.348 2.614,2.159 C2.614,3.545 3.864,4.545 3.864,4.545 C2.475,3.464 0,4.202 0,6.363 C0,7.445 0.884,8.636 2.273,8.636 C3.939,8.636 4.659,6.818 4.659,6.818 C4.659,6.818 4.87,8.89 3.636,10 L6.363,10 C5.129,8.891 5.341,6.818 5.341,6.818 C5.341,6.818 6.062,8.636 7.728,8.636 C9.117,8.636 10,7.445 10,6.363 C10,4.202 7.524,3.464 6.137,4.545 Z" id="i"></path>
            </g>
            <g id="d-link" transform="translate(108.500000, 11.500000)" fill="#000000" fill-rule="nonzero">
                <path d="M12.159,9.136 C12.159,9.136 14.534,7.236 14.534,4.602 C14.534,3.06 13.165,0.5 10,0.5 C6.835,0.5 5.466,3.061 5.466,4.602 C5.466,7.236 7.841,9.136 7.841,9.136 C5.203,7.081 0.5,8.484 0.5,12.591 C0.5,14.647 2.18,16.909 4.818,16.909 C7.983,16.909 9.352,13.454 9.352,13.454 C9.352,13.454 9.754,17.392 7.409,19.5 L12.591,19.5 C10.246,17.393 10.648,13.454 10.648,13.454 C10.648,13.454 12.017,16.909 15.182,16.909 C17.821,16.909 19.5,14.646 19.5,12.591 C19.5,8.484 14.797,7.081 12.159,9.136 Z" id="d"></path>
            </g>
            <g id="d-link" transform="translate(118.500000, 101.500000) rotate(-180.000000) translate(-118.500000, -101.500000) translate(108.500000, 91.500000)" fill="#000000" fill-rule="nonzero">
                <path d="M12.159,9.136 C12.159,9.136 14.534,7.236 14.534,4.602 C14.534,3.06 13.165,0.5 10,0.5 C6.835,0.5 5.466,3.061 5.466,4.602 C5.466,7.236 7.841,9.136 7.841,9.136 C5.203,7.081 0.5,8.484 0.5,12.591 C0.5,14.647 2.18,16.909 4.818,16.909 C7.983,16.909 9.352,13.454 9.352,13.454 C9.352,13.454 9.754,17.392 7.409,19.5 L12.591,19.5 C10.246,17.393 10.648,13.454 10.648,13.454 C10.648,13.454 12.017,16.909 15.182,16.909 C17.821,16.909 19.5,14.646 19.5,12.591 C19.5,8.484 14.797,7.081 12.159,9.136 Z" id="d"></path>
            </g>
        </g>
    </g>
</svg>