<?xml version="1.0" encoding="UTF-8"?>
<svg width="79px" height="123px" viewBox="0 0 79 123" version="1.1" xmlns="http://www.w3.org/2000/svg" xmlns:xlink="http://www.w3.org/1999/xlink">
    <!-- Generator: Sketch 49.1 (51147) - http://www.bohemiancoding.com/sketch -->
    <title>04_herz_vier</title>
    <desc>Created with Sketch.</desc>
    <defs></defs>
    <g id="Page-1" stroke="none" stroke-width="1" fill="none" fill-rule="evenodd">
        <g id="card_game_2-2" transform="translate(-237.000000, -246.000000)">
            <g id="e-link" transform="translate(237.000000, 246.000000)" fill="#FFFFFF" fill-rule="nonzero" stroke="#000000" stroke-width="1.5">
                <path d="M78.25,117.25 C78.25,120.012 76.012,122.25 73.25,122.25 L5.75,122.25 C2.989,122.25 0.75,120.012 0.75,117.25 L0.75,5.75 C0.75,2.988 2.989,0.75 5.75,0.75 L73.25,0.75 C76.012,0.75 78.25,2.988 78.25,5.75 L78.25,117.25 Z" id="e"></path>
            </g>
            <g id="r-link" transform="translate(241.000000, 250.500000)" stroke="#DF0000">
                <g id="r">
                    <path d="M5,12.75 L9,12.75" id="Shape"></path>
                    <polyline id="Shape" points="7 12.75 7 0.25 6.25 0.25 0.75 9.25 0.75 9.75 9 9.75"></polyline>
                </g>
            </g>
            <g id="ae-link" transform="translate(303.000000, 351.500000)" stroke="#DF0000">
                <g id="ae">
                    <polyline id="Shape" points="2 0.25 2 12.75 2.75 12.75 8.25 3.75 8.25 3.25 0 3.25"></polyline>
                    <path d="M4,0.25 L0,0.25" id="Shape"></path>
                </g>
            </g>
            <g id="g-link" transform="translate(240.500000, 265.500000)" fill="#DF0000" fill-rule="nonzero">
                <path d="M7.067,0 C5.243,0 5,1.932 5,1.932 C5,1.932 4.757,0 2.933,0 C1.656,0 0.5,0.866 0.5,2.5 C0.5,4.659 4.545,8.438 5,10 C5.458,8.437 9.5,4.659 9.5,2.5 C9.5,0.866 8.345,0 7.067,0 Z" id="g"></path>
            </g>
            <g id="g-link" transform="translate(307.500000, 344.500000) rotate(-180.000000) translate(-307.500000, -344.500000) translate(302.500000, 339.500000)" fill="#DF0000" fill-rule="nonzero">
                <path d="M7.067,0 C5.243,0 5,1.932 5,1.932 C5,1.932 4.757,0 2.933,0 C1.656,0 0.5,0.866 0.5,2.5 C0.5,4.659 4.545,8.438 5,10 C5.458,8.437 9.5,4.659 9.5,2.5 C9.5,0.866 8.345,0 7.067,0 Z" id="g"></path>
            </g>
            <g id="b-link" transform="translate(252.500000, 258.500000)" fill="#DF0000" fill-rule="nonzero">
                <path d="M11.676,0 C8.433,0 8,3.477 8,3.477 C8,3.477 7.567,0 4.324,0 C2.054,0 0,1.559 0,4.5 C0,8.386 7.191,15.189 8,18 C8.813,15.186 16,8.386 16,4.5 C16,1.559 13.946,0 11.676,0 Z" id="b"></path>
            </g>
            <g id="b-link" transform="translate(260.500000, 347.500000) rotate(-180.000000) translate(-260.500000, -347.500000) translate(252.500000, 338.500000)" fill="#DF0000" fill-rule="nonzero">
                <path d="M11.676,0 C8.433,0 8,3.477 8,3.477 C8,3.477 7.567,0 4.324,0 C2.054,0 0,1.559 0,4.5 C0,8.386 7.191,15.189 8,18 C8.813,15.186 16,8.386 16,4.5 C16,1.559 13.946,0 11.676,0 Z" id="b"></path>
            </g>
            <g id="b-link" transform="translate(284.500000, 258.500000)" fill="#DF0000" fill-rule="nonzero">
                <path d="M11.676,0 C8.433,0 8,3.477 8,3.477 C8,3.477 7.567,0 4.324,0 C2.054,0 0,1.559 0,4.5 C0,8.386 7.191,15.189 8,18 C8.813,15.186 16,8.386 16,4.5 C16,1.559 13.946,0 11.676,0 Z" id="b"></path>
            </g>
            <g id="b-link" transform="translate(292.500000, 347.500000) rotate(-180.000000) translate(-292.500000, -347.500000) translate(284.500000, 338.500000)" fill="#DF0000" fill-rule="nonzero">
                <path d="M11.676,0 C8.433,0 8,3.477 8,3.477 C8,3.477 7.567,0 4.324,0 C2.054,0 0,1.559 0,4.5 C0,8.386 7.191,15.189 8,18 C8.813,15.186 16,8.386 16,4.5 C16,1.559 13.946,0 11.676,0 Z" id="b"></path>
            </g>
        </g>
    </g>
</svg>