<?xml version="1.0" encoding="UTF-8"?>
<svg width="79px" height="123px" viewBox="0 0 79 123" version="1.1" xmlns="http://www.w3.org/2000/svg" xmlns:xlink="http://www.w3.org/1999/xlink">
    <!-- Generator: Sketch 49.1 (51147) - http://www.bohemiancoding.com/sketch -->
    <title>05_pik_fuenf</title>
    <desc>Created with Sketch.</desc>
    <defs></defs>
    <g id="Page-1" stroke="none" stroke-width="1" fill="none" fill-rule="evenodd">
        <g id="card_game_2-2" transform="translate(-316.000000, -369.000000)">
            <g id="e-link" transform="translate(316.000000, 369.000000)" fill="#FFFFFF" fill-rule="nonzero" stroke="#000000" stroke-width="1.5">
                <path d="M78.25,117.25 C78.25,120.012 76.012,122.25 73.25,122.25 L5.75,122.25 C2.989,122.25 0.75,120.012 0.75,117.25 L0.75,5.75 C0.75,2.988 2.989,0.75 5.75,0.75 L73.25,0.75 C76.012,0.75 78.25,2.988 78.25,5.75 L78.25,117.25 Z" id="e"></path>
            </g>
            <g id="q-link" transform="translate(321.000000, 373.500000)" stroke="#000000">
                <g id="q">
                    <path d="M7.25,0.25 L0.25,0.25 L0.25,5.5 L0.95,5.75 C0.95,5.75 1.42,4.25 3.75,4.25 C6.08,4.25 7.02,6.5 7.02,8.75 C7.02,11 5.62,12.75 3.52,12.75 C1.42,12.75 0.49,11.25 0.25,10.5" id="Shape"></path>
                </g>
            </g>
            <g id="ad-link" transform="translate(382.000000, 474.500000)" stroke="#000000">
                <g id="ad">
                    <path d="M0.75,12.75 L7.75,12.75 L7.75,7.5 L7.05,7.25 C7.05,7.25 6.58,8.75 4.25,8.75 C1.92,8.75 0.98,6.5 0.98,4.25 C0.98,2 2.38,0.25 4.48,0.25 C6.58,0.25 7.51,1.75 7.75,2.5" id="Shape"></path>
                </g>
            </g>
            <g id="f-link" transform="translate(319.500000, 387.500000)" fill="#000000" fill-rule="nonzero">
                <path d="M9.494,7.625 C9.357,5.5 5.136,1.5 5,0.5 C4.864,1.5 0.642,5.5 0.506,7.625 C0.411,9.128 1.46,9.75 2.413,9.75 C3.775,9.75 4.184,8.375 4.32,8 C4.32,7.875 4.592,7.875 4.592,8 C4.728,8.375 3.69,11.5 3.366,11.5 L6.634,11.5 C6.311,11.5 5.273,8.375 5.408,8 C5.408,7.875 5.681,7.875 5.681,8 C5.817,8.375 6.225,9.75 7.587,9.75 C8.541,9.75 9.589,9.128 9.494,7.625 Z" id="f"></path>
            </g>
            <g id="f-link" transform="translate(386.500000, 467.500000) rotate(-180.000000) translate(-386.500000, -467.500000) translate(381.500000, 461.500000)" fill="#000000" fill-rule="nonzero">
                <path d="M9.494,7.625 C9.357,5.5 5.136,1.5 5,0.5 C4.864,1.5 0.642,5.5 0.506,7.625 C0.411,9.128 1.46,9.75 2.413,9.75 C3.775,9.75 4.184,8.375 4.32,8 C4.32,7.875 4.592,7.875 4.592,8 C4.728,8.375 3.69,11.5 3.366,11.5 L6.634,11.5 C6.311,11.5 5.273,8.375 5.408,8 C5.408,7.875 5.681,7.875 5.681,8 C5.817,8.375 6.225,9.75 7.587,9.75 C8.541,9.75 9.589,9.128 9.494,7.625 Z" id="f"></path>
            </g>
            <g id="a-link" transform="translate(331.500000, 379.500000)" fill="#000000" fill-rule="nonzero">
                <path d="M15.989,14.103 C15.747,10.046 8.242,2.41 8,0.5 C7.758,2.409 0.253,10.045 0.011,14.103 C-0.158,16.971 1.706,18.16 3.401,18.16 C5.822,18.16 6.548,15.535 6.79,14.819 C6.79,14.58 7.274,14.58 7.274,14.819 C7.516,15.535 5.671,21.501 5.095,21.501 L10.906,21.501 C10.33,21.501 8.485,15.535 8.727,14.819 C8.727,14.58 9.212,14.58 9.212,14.819 C9.454,15.535 10.18,18.16 12.601,18.16 C14.295,18.159 16.158,16.971 15.989,14.103 Z" id="a"></path>
            </g>
            <g id="a-link" transform="translate(339.500000, 470.500000) rotate(-180.000000) translate(-339.500000, -470.500000) translate(331.500000, 459.500000)" fill="#000000" fill-rule="nonzero">
                <path d="M15.989,14.103 C15.747,10.046 8.242,2.41 8,0.5 C7.758,2.409 0.253,10.045 0.011,14.103 C-0.158,16.971 1.706,18.16 3.401,18.16 C5.822,18.16 6.548,15.535 6.79,14.819 C6.79,14.58 7.274,14.58 7.274,14.819 C7.516,15.535 5.671,21.501 5.095,21.501 L10.906,21.501 C10.33,21.501 8.485,15.535 8.727,14.819 C8.727,14.58 9.212,14.58 9.212,14.819 C9.454,15.535 10.18,18.16 12.601,18.16 C14.295,18.159 16.158,16.971 15.989,14.103 Z" id="a"></path>
            </g>
            <g id="a-link" transform="translate(347.500000, 419.500000)" fill="#000000" fill-rule="nonzero">
                <path d="M15.989,14.103 C15.747,10.046 8.242,2.41 8,0.5 C7.758,2.409 0.253,10.045 0.011,14.103 C-0.158,16.971 1.706,18.16 3.401,18.16 C5.822,18.16 6.548,15.535 6.79,14.819 C6.79,14.58 7.274,14.58 7.274,14.819 C7.516,15.535 5.671,21.501 5.095,21.501 L10.906,21.501 C10.33,21.501 8.485,15.535 8.727,14.819 C8.727,14.58 9.212,14.58 9.212,14.819 C9.454,15.535 10.18,18.16 12.601,18.16 C14.295,18.159 16.158,16.971 15.989,14.103 Z" id="a"></path>
            </g>
            <g id="a-link" transform="translate(363.500000, 379.500000)" fill="#000000" fill-rule="nonzero">
                <path d="M15.989,14.103 C15.747,10.046 8.242,2.41 8,0.5 C7.758,2.409 0.253,10.045 0.011,14.103 C-0.158,16.971 1.706,18.16 3.401,18.16 C5.822,18.16 6.548,15.535 6.79,14.819 C6.79,14.58 7.274,14.58 7.274,14.819 C7.516,15.535 5.671,21.501 5.095,21.501 L10.906,21.501 C10.33,21.501 8.485,15.535 8.727,14.819 C8.727,14.58 9.212,14.58 9.212,14.819 C9.454,15.535 10.18,18.16 12.601,18.16 C14.295,18.159 16.158,16.971 15.989,14.103 Z" id="a"></path>
            </g>
            <g id="a-link" transform="translate(371.500000, 470.500000) rotate(-180.000000) translate(-371.500000, -470.500000) translate(363.500000, 459.500000)" fill="#000000" fill-rule="nonzero">
                <path d="M15.989,14.103 C15.747,10.046 8.242,2.41 8,0.5 C7.758,2.409 0.253,10.045 0.011,14.103 C-0.158,16.971 1.706,18.16 3.401,18.16 C5.822,18.16 6.548,15.535 6.79,14.819 C6.79,14.58 7.274,14.58 7.274,14.819 C7.516,15.535 5.671,21.501 5.095,21.501 L10.906,21.501 C10.33,21.501 8.485,15.535 8.727,14.819 C8.727,14.58 9.212,14.58 9.212,14.819 C9.454,15.535 10.18,18.16 12.601,18.16 C14.295,18.159 16.158,16.971 15.989,14.103 Z" id="a"></path>
            </g>
        </g>
    </g>
</svg>