<?xml version="1.0" encoding="UTF-8"?>
<svg width="79px" height="123px" viewBox="0 0 79 123" version="1.1" xmlns="http://www.w3.org/2000/svg" xmlns:xlink="http://www.w3.org/1999/xlink">
    <!-- Generator: Sketch 49.1 (51147) - http://www.bohemiancoding.com/sketch -->
    <title>08_herz_acht</title>
    <desc>Created with Sketch.</desc>
    <defs></defs>
    <g id="Page-1" stroke="none" stroke-width="1" fill="none" fill-rule="evenodd">
        <g id="card_game_2-2" transform="translate(-553.000000, -246.000000)">
            <g id="e-link" transform="translate(553.000000, 246.000000)" fill="#FFFFFF" fill-rule="nonzero" stroke="#000000" stroke-width="1.5">
                <path d="M78.25,117.25 C78.25,120.012 76.012,122.25 73.25,122.25 L5.75,122.25 C2.989,122.25 0.75,120.012 0.75,117.25 L0.75,5.75 C0.75,2.988 2.989,0.75 5.75,0.75 L73.25,0.75 C76.012,0.75 78.25,2.988 78.25,5.75 L78.25,117.25 Z" id="e"></path>
            </g>
            <g id="n-link" transform="translate(558.000000, 249.500000)" stroke="#DF0000">
                <g id="n">
                    <path d="M7,10.25 C7,8.31700338 5.43299662,6.75 3.5,6.75 C1.56700338,6.75 0,8.31700338 0,10.25 C0,12.1829966 1.56700338,13.75 3.5,13.75 C5.43299662,13.75 7,12.1829966 7,10.25" id="Shape"></path>
                    <path d="M6.5,3.75 C6.5,2.09314575 5.15685425,0.75 3.5,0.75 C1.84314575,0.75 0.5,2.09314575 0.5,3.75 C0.5,5.40685425 1.84314575,6.75 3.5,6.75 C5.15685425,6.75 6.5,5.40685425 6.5,3.75" id="Shape"></path>
                </g>
            </g>
            <g id="aa-link" transform="translate(620.000000, 351.500000)" stroke="#DF0000">
                <g id="aa">
                    <path d="M6.5,10.25 C6.5,8.59314575 5.15685425,7.25 3.5,7.25 C1.84314575,7.25 0.5,8.59314575 0.5,10.25 C0.5,11.9068542 1.84314575,13.25 3.5,13.25 C5.15685425,13.25 6.5,11.9068542 6.5,10.25" id="Shape"></path>
                    <path d="M7,3.75 C7,1.81700338 5.43299662,0.25 3.5,0.25 C1.56700338,0.25 0,1.81700338 0,3.75 C0,5.68299662 1.56700338,7.25 3.5,7.25 C5.43299662,7.25 7,5.68299662 7,3.75" id="Shape"></path>
                </g>
            </g>
            <g id="g-link" transform="translate(556.500000, 265.500000)" fill="#DF0000" fill-rule="nonzero">
                <path d="M7.067,0 C5.243,0 5,1.932 5,1.932 C5,1.932 4.757,0 2.933,0 C1.656,0 0.5,0.866 0.5,2.5 C0.5,4.659 4.545,8.438 5,10 C5.458,8.437 9.5,4.659 9.5,2.5 C9.5,0.866 8.345,0 7.067,0 Z" id="g"></path>
            </g>
            <g id="g-link" transform="translate(623.500000, 344.500000) rotate(-180.000000) translate(-623.500000, -344.500000) translate(618.500000, 339.500000)" fill="#DF0000" fill-rule="nonzero">
                <path d="M7.067,0 C5.243,0 5,1.932 5,1.932 C5,1.932 4.757,0 2.933,0 C1.656,0 0.5,0.866 0.5,2.5 C0.5,4.659 4.545,8.438 5,10 C5.458,8.437 9.5,4.659 9.5,2.5 C9.5,0.866 8.345,0 7.067,0 Z" id="g"></path>
            </g>
            <g id="b-link" transform="translate(568.500000, 258.500000)" fill="#DF0000" fill-rule="nonzero">
                <path d="M11.676,0 C8.433,0 8,3.477 8,3.477 C8,3.477 7.567,0 4.324,0 C2.054,0 0,1.559 0,4.5 C0,8.386 7.191,15.189 8,18 C8.813,15.186 16,8.386 16,4.5 C16,1.559 13.946,0 11.676,0 Z" id="b"></path>
            </g>
            <g id="b-link" transform="translate(568.500000, 298.500000)" fill="#DF0000" fill-rule="nonzero">
                <path d="M11.676,0 C8.433,0 8,3.477 8,3.477 C8,3.477 7.567,0 4.324,0 C2.054,0 0,1.559 0,4.5 C0,8.386 7.191,15.189 8,18 C8.813,15.186 16,8.386 16,4.5 C16,1.559 13.946,0 11.676,0 Z" id="b"></path>
            </g>
            <g id="b-link" transform="translate(576.500000, 347.500000) rotate(-180.000000) translate(-576.500000, -347.500000) translate(568.500000, 338.500000)" fill="#DF0000" fill-rule="nonzero">
                <path d="M11.676,0 C8.433,0 8,3.477 8,3.477 C8,3.477 7.567,0 4.324,0 C2.054,0 0,1.559 0,4.5 C0,8.386 7.191,15.189 8,18 C8.813,15.186 16,8.386 16,4.5 C16,1.559 13.946,0 11.676,0 Z" id="b"></path>
            </g>
            <g id="b-link" transform="translate(584.500000, 278.500000)" fill="#DF0000" fill-rule="nonzero">
                <path d="M11.676,0 C8.433,0 8,3.477 8,3.477 C8,3.477 7.567,0 4.324,0 C2.054,0 0,1.559 0,4.5 C0,8.386 7.191,15.189 8,18 C8.813,15.186 16,8.386 16,4.5 C16,1.559 13.946,0 11.676,0 Z" id="b"></path>
            </g>
            <g id="b-link" transform="translate(592.500000, 327.500000) rotate(-180.000000) translate(-592.500000, -327.500000) translate(584.500000, 318.500000)" fill="#DF0000" fill-rule="nonzero">
                <path d="M11.676,0 C8.433,0 8,3.477 8,3.477 C8,3.477 7.567,0 4.324,0 C2.054,0 0,1.559 0,4.5 C0,8.386 7.191,15.189 8,18 C8.813,15.186 16,8.386 16,4.5 C16,1.559 13.946,0 11.676,0 Z" id="b"></path>
            </g>
            <g id="b-link" transform="translate(600.500000, 258.500000)" fill="#DF0000" fill-rule="nonzero">
                <path d="M11.676,0 C8.433,0 8,3.477 8,3.477 C8,3.477 7.567,0 4.324,0 C2.054,0 0,1.559 0,4.5 C0,8.386 7.191,15.189 8,18 C8.813,15.186 16,8.386 16,4.5 C16,1.559 13.946,0 11.676,0 Z" id="b"></path>
            </g>
            <g id="b-link" transform="translate(600.500000, 298.500000)" fill="#DF0000" fill-rule="nonzero">
                <path d="M11.676,0 C8.433,0 8,3.477 8,3.477 C8,3.477 7.567,0 4.324,0 C2.054,0 0,1.559 0,4.5 C0,8.386 7.191,15.189 8,18 C8.813,15.186 16,8.386 16,4.5 C16,1.559 13.946,0 11.676,0 Z" id="b"></path>
            </g>
            <g id="b-link" transform="translate(608.500000, 347.500000) rotate(-180.000000) translate(-608.500000, -347.500000) translate(600.500000, 338.500000)" fill="#DF0000" fill-rule="nonzero">
                <path d="M11.676,0 C8.433,0 8,3.477 8,3.477 C8,3.477 7.567,0 4.324,0 C2.054,0 0,1.559 0,4.5 C0,8.386 7.191,15.189 8,18 C8.813,15.186 16,8.386 16,4.5 C16,1.559 13.946,0 11.676,0 Z" id="b"></path>
            </g>
        </g>
    </g>
</svg>