<?xml version="1.0" encoding="UTF-8"?>
<svg width="79px" height="123px" viewBox="0 0 79 123" version="1.1" xmlns="http://www.w3.org/2000/svg" xmlns:xlink="http://www.w3.org/1999/xlink">
    <!-- Generator: Sketch 49.1 (51147) - http://www.bohemiancoding.com/sketch -->
    <title>08_karo_acht</title>
    <desc>Created with Sketch.</desc>
    <defs></defs>
    <g id="Page-1" stroke="none" stroke-width="1" fill="none" fill-rule="evenodd">
        <g id="card_game_2-2" transform="translate(-553.000000, -123.000000)">
            <g id="e-link" transform="translate(553.000000, 123.000000)" fill="#FFFFFF" fill-rule="nonzero" stroke="#000000" stroke-width="1.5">
                <path d="M78.25,117.25 C78.25,120.012 76.012,122.25 73.25,122.25 L5.75,122.25 C2.989,122.25 0.75,120.012 0.75,117.25 L0.75,5.75 C0.75,2.988 2.989,0.75 5.75,0.75 L73.25,0.75 C76.012,0.75 78.25,2.988 78.25,5.75 L78.25,117.25 Z" id="e"></path>
            </g>
            <g id="n-link" transform="translate(558.000000, 126.500000)" stroke="#DF0000">
                <g id="n">
                    <path d="M7,10.25 C7,8.31700338 5.43299662,6.75 3.5,6.75 C1.56700338,6.75 0,8.31700338 0,10.25 C0,12.1829966 1.56700338,13.75 3.5,13.75 C5.43299662,13.75 7,12.1829966 7,10.25" id="Shape"></path>
                    <path d="M6.5,3.75 C6.5,2.09314575 5.15685425,0.75 3.5,0.75 C1.84314575,0.75 0.5,2.09314575 0.5,3.75 C0.5,5.40685425 1.84314575,6.75 3.5,6.75 C5.15685425,6.75 6.5,5.40685425 6.5,3.75" id="Shape"></path>
                </g>
            </g>
            <g id="aa-link" transform="translate(620.000000, 228.500000)" stroke="#DF0000">
                <g id="aa">
                    <path d="M6.5,10.25 C6.5,8.59314575 5.15685425,7.25 3.5,7.25 C1.84314575,7.25 0.5,8.59314575 0.5,10.25 C0.5,11.9068542 1.84314575,13.25 3.5,13.25 C5.15685425,13.25 6.5,11.9068542 6.5,10.25" id="Shape"></path>
                    <path d="M7,3.75 C7,1.81700338 5.43299662,0.25 3.5,0.25 C1.56700338,0.25 0,1.81700338 0,3.75 C0,5.68299662 1.56700338,7.25 3.5,7.25 C5.43299662,7.25 7,5.68299662 7,3.75" id="Shape"></path>
                </g>
            </g>
            <g id="h-link" transform="translate(556.500000, 141.500000)" fill="#DF0000" fill-rule="nonzero">
                <path d="M6.985,3.375 C5.794,1.875 5,0.5 5,0.5 C5,0.5 4.206,1.875 3.015,3.375 C1.824,4.875 0.5,6 0.5,6 C0.5,6 1.824,7.125 3.015,8.625 C4.206,10.125 5,11.5 5,11.5 C5,11.5 5.794,10.125 6.985,8.625 C8.176,7.125 9.5,6 9.5,6 C9.5,6 8.177,4.875 6.985,3.375 Z" id="h"></path>
            </g>
            <g id="h-link" transform="translate(618.500000, 215.500000)" fill="#DF0000" fill-rule="nonzero">
                <path d="M6.985,3.375 C5.794,1.875 5,0.5 5,0.5 C5,0.5 4.206,1.875 3.015,3.375 C1.824,4.875 0.5,6 0.5,6 C0.5,6 1.824,7.125 3.015,8.625 C4.206,10.125 5,11.5 5,11.5 C5,11.5 5.794,10.125 6.985,8.625 C8.176,7.125 9.5,6 9.5,6 C9.5,6 8.177,4.875 6.985,3.375 Z" id="h"></path>
            </g>
            <g id="c-link" transform="translate(568.500000, 133.500000)" fill="#DF0000" fill-rule="nonzero">
                <path d="M11.529,5.989 C9.412,3.125 8,0.5 8,0.5 C8,0.5 6.588,3.125 4.471,5.989 C2.354,8.853 0,11 0,11 C0,11 2.353,13.147 4.471,16.012 C6.589,18.877 8,21.5 8,21.5 C8,21.5 9.412,18.875 11.529,16.012 C13.646,13.149 16,11 16,11 C16,11 13.647,8.852 11.529,5.989 Z" id="c"></path>
            </g>
            <g id="c-link" transform="translate(568.500000, 173.500000)" fill="#DF0000" fill-rule="nonzero">
                <path d="M11.529,5.989 C9.412,3.125 8,0.5 8,0.5 C8,0.5 6.588,3.125 4.471,5.989 C2.354,8.853 0,11 0,11 C0,11 2.353,13.147 4.471,16.012 C6.589,18.877 8,21.5 8,21.5 C8,21.5 9.412,18.875 11.529,16.012 C13.646,13.149 16,11 16,11 C16,11 13.647,8.852 11.529,5.989 Z" id="c"></path>
            </g>
            <g id="c-link" transform="translate(568.500000, 213.500000)" fill="#DF0000" fill-rule="nonzero">
                <path d="M11.529,5.989 C9.412,3.125 8,0.5 8,0.5 C8,0.5 6.588,3.125 4.471,5.989 C2.354,8.853 0,11 0,11 C0,11 2.353,13.147 4.471,16.012 C6.589,18.877 8,21.5 8,21.5 C8,21.5 9.412,18.875 11.529,16.012 C13.646,13.149 16,11 16,11 C16,11 13.647,8.852 11.529,5.989 Z" id="c"></path>
            </g>
            <g id="c-link" transform="translate(584.500000, 153.500000)" fill="#DF0000" fill-rule="nonzero">
                <path d="M11.529,5.989 C9.412,3.125 8,0.5 8,0.5 C8,0.5 6.588,3.125 4.471,5.989 C2.354,8.853 0,11 0,11 C0,11 2.353,13.147 4.471,16.012 C6.589,18.877 8,21.5 8,21.5 C8,21.5 9.412,18.875 11.529,16.012 C13.646,13.149 16,11 16,11 C16,11 13.647,8.852 11.529,5.989 Z" id="c"></path>
            </g>
            <g id="c-link" transform="translate(584.500000, 193.500000)" fill="#DF0000" fill-rule="nonzero">
                <path d="M11.529,5.989 C9.412,3.125 8,0.5 8,0.5 C8,0.5 6.588,3.125 4.471,5.989 C2.354,8.853 0,11 0,11 C0,11 2.353,13.147 4.471,16.012 C6.589,18.877 8,21.5 8,21.5 C8,21.5 9.412,18.875 11.529,16.012 C13.646,13.149 16,11 16,11 C16,11 13.647,8.852 11.529,5.989 Z" id="c"></path>
            </g>
            <g id="c-link" transform="translate(600.500000, 133.500000)" fill="#DF0000" fill-rule="nonzero">
                <path d="M11.529,5.989 C9.412,3.125 8,0.5 8,0.5 C8,0.5 6.588,3.125 4.471,5.989 C2.354,8.853 0,11 0,11 C0,11 2.353,13.147 4.471,16.012 C6.589,18.877 8,21.5 8,21.5 C8,21.5 9.412,18.875 11.529,16.012 C13.646,13.149 16,11 16,11 C16,11 13.647,8.852 11.529,5.989 Z" id="c"></path>
            </g>
            <g id="c-link" transform="translate(600.500000, 173.500000)" fill="#DF0000" fill-rule="nonzero">
                <path d="M11.529,5.989 C9.412,3.125 8,0.5 8,0.5 C8,0.5 6.588,3.125 4.471,5.989 C2.354,8.853 0,11 0,11 C0,11 2.353,13.147 4.471,16.012 C6.589,18.877 8,21.5 8,21.5 C8,21.5 9.412,18.875 11.529,16.012 C13.646,13.149 16,11 16,11 C16,11 13.647,8.852 11.529,5.989 Z" id="c"></path>
            </g>
            <g id="c-link" transform="translate(600.500000, 213.500000)" fill="#DF0000" fill-rule="nonzero">
                <path d="M11.529,5.989 C9.412,3.125 8,0.5 8,0.5 C8,0.5 6.588,3.125 4.471,5.989 C2.354,8.853 0,11 0,11 C0,11 2.353,13.147 4.471,16.012 C6.589,18.877 8,21.5 8,21.5 C8,21.5 9.412,18.875 11.529,16.012 C13.646,13.149 16,11 16,11 C16,11 13.647,8.852 11.529,5.989 Z" id="c"></path>
            </g>
        </g>
    </g>
</svg>