<?xml version="1.0" encoding="UTF-8"?>
<svg width="79px" height="123px" viewBox="0 0 79 123" version="1.1" xmlns="http://www.w3.org/2000/svg" xmlns:xlink="http://www.w3.org/1999/xlink">
    <!-- Generator: Sketch 49.1 (51147) - http://www.bohemiancoding.com/sketch -->
    <title>09_herz_neun</title>
    <desc>Created with Sketch.</desc>
    <defs></defs>
    <g id="Page-1" stroke="none" stroke-width="1" fill="none" fill-rule="evenodd">
        <g id="card_game_2-2" transform="translate(-632.000000, -246.000000)">
            <g id="e-link" transform="translate(632.000000, 246.000000)" fill="#FFFFFF" fill-rule="nonzero" stroke="#000000" stroke-width="1.5">
                <path d="M78.25,117.25 C78.25,120.012 76.012,122.25 73.25,122.25 L5.75,122.25 C2.989,122.25 0.75,120.012 0.75,117.25 L0.75,5.75 C0.75,2.988 2.989,0.75 5.75,0.75 L73.25,0.75 C76.012,0.75 78.25,2.988 78.25,5.75 L78.25,117.25 Z" id="e"></path>
            </g>
            <g id="m-link" transform="translate(637.000000, 250.500000)" stroke="#DF0000">
                <g id="m">
                    <path d="M6.75,4 L6.75,9.5 C6.75,9.5 7,12.75 3.52,12.75 C2.44,12.75 0.72,12.25 0.5,10.5" id="Shape"></path>
                    <path d="M6.75,4 C6.75,2.20507456 5.29492544,0.75 3.5,0.75 C1.70507456,0.75 0.25,2.20507456 0.25,4 C0.25,5.79492544 1.70507456,7.25 3.5,7.25 C5.29492544,7.25 6.75,5.79492544 6.75,4" id="Shape"></path>
                </g>
            </g>
            <g id="z-link" transform="translate(699.000000, 351.500000)" stroke="#DF0000">
                <g id="z">
                    <path d="M6.75,9 C6.75,7.20507456 5.29492544,5.75 3.5,5.75 C1.70507456,5.75 0.25,7.20507456 0.25,9 C0.25,10.7949254 1.70507456,12.25 3.5,12.25 C5.29492544,12.25 6.75,10.7949254 6.75,9" id="Shape"></path>
                    <path d="M0.25,9 L0.25,3.5 C0.25,3.5 -6.05071548e-15,0.25 3.48,0.25 C4.56,0.25 6.28,0.75 6.5,2.5" id="Shape"></path>
                </g>
            </g>
            <g id="g-link" transform="translate(635.500000, 265.500000)" fill="#DF0000" fill-rule="nonzero">
                <path d="M7.067,0 C5.243,0 5,1.932 5,1.932 C5,1.932 4.757,0 2.933,0 C1.656,0 0.5,0.866 0.5,2.5 C0.5,4.659 4.545,8.438 5,10 C5.458,8.437 9.5,4.659 9.5,2.5 C9.5,0.866 8.345,0 7.067,0 Z" id="g"></path>
            </g>
            <g id="g-link" transform="translate(702.500000, 344.500000) rotate(-180.000000) translate(-702.500000, -344.500000) translate(697.500000, 339.500000)" fill="#DF0000" fill-rule="nonzero">
                <path d="M7.067,0 C5.243,0 5,1.932 5,1.932 C5,1.932 4.757,0 2.933,0 C1.656,0 0.5,0.866 0.5,2.5 C0.5,4.659 4.545,8.438 5,10 C5.458,8.437 9.5,4.659 9.5,2.5 C9.5,0.866 8.345,0 7.067,0 Z" id="g"></path>
            </g>
            <g id="b-link" transform="translate(647.500000, 258.500000)" fill="#DF0000" fill-rule="nonzero">
                <path d="M11.676,0 C8.433,0 8,3.477 8,3.477 C8,3.477 7.567,0 4.324,0 C2.054,0 0,1.559 0,4.5 C0,8.386 7.191,15.189 8,18 C8.813,15.186 16,8.386 16,4.5 C16,1.559 13.946,0 11.676,0 Z" id="b"></path>
            </g>
            <g id="b-link" transform="translate(647.500000, 285.250000)" fill="#DF0000" fill-rule="nonzero">
                <path d="M11.676,0 C8.433,0 8,3.477 8,3.477 C8,3.477 7.567,0 4.324,0 C2.054,0 0,1.559 0,4.5 C0,8.386 7.191,15.189 8,18 C8.813,15.186 16,8.386 16,4.5 C16,1.559 13.946,0 11.676,0 Z" id="b"></path>
            </g>
            <g id="b-link" transform="translate(655.500000, 320.750000) rotate(-180.000000) translate(-655.500000, -320.750000) translate(647.500000, 311.750000)" fill="#DF0000" fill-rule="nonzero">
                <path d="M11.676,0 C8.433,0 8,3.477 8,3.477 C8,3.477 7.567,0 4.324,0 C2.054,0 0,1.559 0,4.5 C0,8.386 7.191,15.189 8,18 C8.813,15.186 16,8.386 16,4.5 C16,1.559 13.946,0 11.676,0 Z" id="b"></path>
            </g>
            <g id="b-link" transform="translate(655.500000, 347.500000) rotate(-180.000000) translate(-655.500000, -347.500000) translate(647.500000, 338.500000)" fill="#DF0000" fill-rule="nonzero">
                <path d="M11.676,0 C8.433,0 8,3.477 8,3.477 C8,3.477 7.567,0 4.324,0 C2.054,0 0,1.559 0,4.5 C0,8.386 7.191,15.189 8,18 C8.813,15.186 16,8.386 16,4.5 C16,1.559 13.946,0 11.676,0 Z" id="b"></path>
            </g>
            <g id="b-link" transform="translate(663.500000, 298.500000)" fill="#DF0000" fill-rule="nonzero">
                <path d="M11.676,0 C8.433,0 8,3.477 8,3.477 C8,3.477 7.567,0 4.324,0 C2.054,0 0,1.559 0,4.5 C0,8.386 7.191,15.189 8,18 C8.813,15.186 16,8.386 16,4.5 C16,1.559 13.946,0 11.676,0 Z" id="b"></path>
            </g>
            <g id="b-link" transform="translate(679.500000, 258.500000)" fill="#DF0000" fill-rule="nonzero">
                <path d="M11.676,0 C8.433,0 8,3.477 8,3.477 C8,3.477 7.567,0 4.324,0 C2.054,0 0,1.559 0,4.5 C0,8.386 7.191,15.189 8,18 C8.813,15.186 16,8.386 16,4.5 C16,1.559 13.946,0 11.676,0 Z" id="b"></path>
            </g>
            <g id="b-link" transform="translate(679.500000, 285.250000)" fill="#DF0000" fill-rule="nonzero">
                <path d="M11.676,0 C8.433,0 8,3.477 8,3.477 C8,3.477 7.567,0 4.324,0 C2.054,0 0,1.559 0,4.5 C0,8.386 7.191,15.189 8,18 C8.813,15.186 16,8.386 16,4.5 C16,1.559 13.946,0 11.676,0 Z" id="b"></path>
            </g>
            <g id="b-link" transform="translate(687.500000, 320.750000) rotate(-180.000000) translate(-687.500000, -320.750000) translate(679.500000, 311.750000)" fill="#DF0000" fill-rule="nonzero">
                <path d="M11.676,0 C8.433,0 8,3.477 8,3.477 C8,3.477 7.567,0 4.324,0 C2.054,0 0,1.559 0,4.5 C0,8.386 7.191,15.189 8,18 C8.813,15.186 16,8.386 16,4.5 C16,1.559 13.946,0 11.676,0 Z" id="b"></path>
            </g>
            <g id="b-link" transform="translate(687.500000, 347.500000) rotate(-180.000000) translate(-687.500000, -347.500000) translate(679.500000, 338.500000)" fill="#DF0000" fill-rule="nonzero">
                <path d="M11.676,0 C8.433,0 8,3.477 8,3.477 C8,3.477 7.567,0 4.324,0 C2.054,0 0,1.559 0,4.5 C0,8.386 7.191,15.189 8,18 C8.813,15.186 16,8.386 16,4.5 C16,1.559 13.946,0 11.676,0 Z" id="b"></path>
            </g>
        </g>
    </g>
</svg>