<?xml version="1.0" encoding="UTF-8"?>
<svg width="79px" height="123px" viewBox="0 0 79 123" version="1.1" xmlns="http://www.w3.org/2000/svg" xmlns:xlink="http://www.w3.org/1999/xlink">
    <!-- Generator: Sketch 49.1 (51147) - http://www.bohemiancoding.com/sketch -->
    <title>10_pik_zehn</title>
    <desc>Created with Sketch.</desc>
    <defs></defs>
    <g id="Page-1" stroke="none" stroke-width="1" fill="none" fill-rule="evenodd">
        <g id="card_game_2-2" transform="translate(-711.000000, -369.000000)">
            <g id="e-link" transform="translate(711.000000, 369.000000)" fill="#FFFFFF" fill-rule="nonzero" stroke="#000000" stroke-width="1.5">
                <path d="M78.25,117.25 C78.25,120.012 76.012,122.25 73.25,122.25 L5.75,122.25 C2.989,122.25 0.75,120.012 0.75,117.25 L0.75,5.75 C0.75,2.988 2.989,0.75 5.75,0.75 L73.25,0.75 C76.012,0.75 78.25,2.988 78.25,5.75 L78.25,117.25 Z" id="e"></path>
            </g>
            <g id="u-link" transform="translate(715.000000, 372.500000)" stroke="#000000">
                <g id="u">
                    <path d="M8.25,11.6 C8.25,12.79 7.24,13.75 6,13.75 C4.76,13.75 3.75,12.79 3.75,11.6 L3.75,3.4 C3.75,2.21 4.76,1.25 6,1.25 C7.24,1.25 8.25,2.21 8.25,3.4 L8.25,11.6 Z" id="Shape"></path>
                    <path d="M0.75,0.75 L0.75,14.25" id="Shape"></path>
                </g>
            </g>
            <g id="ah-link" transform="translate(777.000000, 473.500000)" stroke="#000000">
                <g id="ah">
                    <path d="M8.25,14.25 L8.25,0.75" id="Shape"></path>
                    <path d="M0.75,3.4 C0.75,2.21 1.76,1.25 3,1.25 C4.24,1.25 5.25,2.21 5.25,3.4 L5.25,11.6 C5.25,12.79 4.24,13.75 3,13.75 C1.76,13.75 0.75,12.79 0.75,11.6 L0.75,3.4 Z" id="Shape"></path>
                </g>
            </g>
            <g id="f-link" transform="translate(714.500000, 387.500000)" fill="#000000" fill-rule="nonzero">
                <path d="M9.494,7.625 C9.357,5.5 5.136,1.5 5,0.5 C4.864,1.5 0.642,5.5 0.506,7.625 C0.411,9.128 1.46,9.75 2.413,9.75 C3.775,9.75 4.184,8.375 4.32,8 C4.32,7.875 4.592,7.875 4.592,8 C4.728,8.375 3.69,11.5 3.366,11.5 L6.634,11.5 C6.311,11.5 5.273,8.375 5.408,8 C5.408,7.875 5.681,7.875 5.681,8 C5.817,8.375 6.225,9.75 7.587,9.75 C8.541,9.75 9.589,9.128 9.494,7.625 Z" id="f"></path>
            </g>
            <g id="f-link" transform="translate(781.500000, 467.500000) rotate(-180.000000) translate(-781.500000, -467.500000) translate(776.500000, 461.500000)" fill="#000000" fill-rule="nonzero">
                <path d="M9.494,7.625 C9.357,5.5 5.136,1.5 5,0.5 C4.864,1.5 0.642,5.5 0.506,7.625 C0.411,9.128 1.46,9.75 2.413,9.75 C3.775,9.75 4.184,8.375 4.32,8 C4.32,7.875 4.592,7.875 4.592,8 C4.728,8.375 3.69,11.5 3.366,11.5 L6.634,11.5 C6.311,11.5 5.273,8.375 5.408,8 C5.408,7.875 5.681,7.875 5.681,8 C5.817,8.375 6.225,9.75 7.587,9.75 C8.541,9.75 9.589,9.128 9.494,7.625 Z" id="f"></path>
            </g>
            <g id="a-link" transform="translate(726.500000, 379.500000)" fill="#000000" fill-rule="nonzero">
                <path d="M15.989,14.103 C15.747,10.046 8.242,2.41 8,0.5 C7.758,2.409 0.253,10.045 0.011,14.103 C-0.158,16.971 1.706,18.16 3.401,18.16 C5.822,18.16 6.548,15.535 6.79,14.819 C6.79,14.58 7.274,14.58 7.274,14.819 C7.516,15.535 5.671,21.501 5.095,21.501 L10.906,21.501 C10.33,21.501 8.485,15.535 8.727,14.819 C8.727,14.58 9.212,14.58 9.212,14.819 C9.454,15.535 10.18,18.16 12.601,18.16 C14.295,18.159 16.158,16.971 15.989,14.103 Z" id="a"></path>
            </g>
            <g id="a-link" transform="translate(726.500000, 406.250000)" fill="#000000" fill-rule="nonzero">
                <path d="M15.989,14.103 C15.747,10.046 8.242,2.41 8,0.5 C7.758,2.409 0.253,10.045 0.011,14.103 C-0.158,16.971 1.706,18.16 3.401,18.16 C5.822,18.16 6.548,15.535 6.79,14.819 C6.79,14.58 7.274,14.58 7.274,14.819 C7.516,15.535 5.671,21.501 5.095,21.501 L10.906,21.501 C10.33,21.501 8.485,15.535 8.727,14.819 C8.727,14.58 9.212,14.58 9.212,14.819 C9.454,15.535 10.18,18.16 12.601,18.16 C14.295,18.159 16.158,16.971 15.989,14.103 Z" id="a"></path>
            </g>
            <g id="a-link" transform="translate(734.500000, 443.750000) rotate(-180.000000) translate(-734.500000, -443.750000) translate(726.500000, 432.750000)" fill="#000000" fill-rule="nonzero">
                <path d="M15.989,14.103 C15.747,10.046 8.242,2.41 8,0.5 C7.758,2.409 0.253,10.045 0.011,14.103 C-0.158,16.971 1.706,18.16 3.401,18.16 C5.822,18.16 6.548,15.535 6.79,14.819 C6.79,14.58 7.274,14.58 7.274,14.819 C7.516,15.535 5.671,21.501 5.095,21.501 L10.906,21.501 C10.33,21.501 8.485,15.535 8.727,14.819 C8.727,14.58 9.212,14.58 9.212,14.819 C9.454,15.535 10.18,18.16 12.601,18.16 C14.295,18.159 16.158,16.971 15.989,14.103 Z" id="a"></path>
            </g>
            <g id="a-link" transform="translate(734.500000, 470.500000) rotate(-180.000000) translate(-734.500000, -470.500000) translate(726.500000, 459.500000)" fill="#000000" fill-rule="nonzero">
                <path d="M15.989,14.103 C15.747,10.046 8.242,2.41 8,0.5 C7.758,2.409 0.253,10.045 0.011,14.103 C-0.158,16.971 1.706,18.16 3.401,18.16 C5.822,18.16 6.548,15.535 6.79,14.819 C6.79,14.58 7.274,14.58 7.274,14.819 C7.516,15.535 5.671,21.501 5.095,21.501 L10.906,21.501 C10.33,21.501 8.485,15.535 8.727,14.819 C8.727,14.58 9.212,14.58 9.212,14.819 C9.454,15.535 10.18,18.16 12.601,18.16 C14.295,18.159 16.158,16.971 15.989,14.103 Z" id="a"></path>
            </g>
            <g id="a-link" transform="translate(742.500000, 392.880000)" fill="#000000" fill-rule="nonzero">
                <path d="M15.989,14.103 C15.747,10.046 8.242,2.41 8,0.5 C7.758,2.409 0.253,10.045 0.011,14.103 C-0.158,16.971 1.706,18.16 3.401,18.16 C5.822,18.16 6.548,15.535 6.79,14.819 C6.79,14.58 7.274,14.58 7.274,14.819 C7.516,15.535 5.671,21.501 5.095,21.501 L10.906,21.501 C10.33,21.501 8.485,15.535 8.727,14.819 C8.727,14.58 9.212,14.58 9.212,14.819 C9.454,15.535 10.18,18.16 12.601,18.16 C14.295,18.159 16.158,16.971 15.989,14.103 Z" id="a"></path>
            </g>
            <g id="a-link" transform="translate(750.500000, 457.120000) rotate(-180.000000) translate(-750.500000, -457.120000) translate(742.500000, 446.120000)" fill="#000000" fill-rule="nonzero">
                <path d="M15.989,14.103 C15.747,10.046 8.242,2.41 8,0.5 C7.758,2.409 0.253,10.045 0.011,14.103 C-0.158,16.971 1.706,18.16 3.401,18.16 C5.822,18.16 6.548,15.535 6.79,14.819 C6.79,14.58 7.274,14.58 7.274,14.819 C7.516,15.535 5.671,21.501 5.095,21.501 L10.906,21.501 C10.33,21.501 8.485,15.535 8.727,14.819 C8.727,14.58 9.212,14.58 9.212,14.819 C9.454,15.535 10.18,18.16 12.601,18.16 C14.295,18.159 16.158,16.971 15.989,14.103 Z" id="a"></path>
            </g>
            <g id="a-link" transform="translate(758.500000, 379.500000)" fill="#000000" fill-rule="nonzero">
                <path d="M15.989,14.103 C15.747,10.046 8.242,2.41 8,0.5 C7.758,2.409 0.253,10.045 0.011,14.103 C-0.158,16.971 1.706,18.16 3.401,18.16 C5.822,18.16 6.548,15.535 6.79,14.819 C6.79,14.58 7.274,14.58 7.274,14.819 C7.516,15.535 5.671,21.501 5.095,21.501 L10.906,21.501 C10.33,21.501 8.485,15.535 8.727,14.819 C8.727,14.58 9.212,14.58 9.212,14.819 C9.454,15.535 10.18,18.16 12.601,18.16 C14.295,18.159 16.158,16.971 15.989,14.103 Z" id="a"></path>
            </g>
            <g id="a-link" transform="translate(758.500000, 406.250000)" fill="#000000" fill-rule="nonzero">
                <path d="M15.989,14.103 C15.747,10.046 8.242,2.41 8,0.5 C7.758,2.409 0.253,10.045 0.011,14.103 C-0.158,16.971 1.706,18.16 3.401,18.16 C5.822,18.16 6.548,15.535 6.79,14.819 C6.79,14.58 7.274,14.58 7.274,14.819 C7.516,15.535 5.671,21.501 5.095,21.501 L10.906,21.501 C10.33,21.501 8.485,15.535 8.727,14.819 C8.727,14.58 9.212,14.58 9.212,14.819 C9.454,15.535 10.18,18.16 12.601,18.16 C14.295,18.159 16.158,16.971 15.989,14.103 Z" id="a"></path>
            </g>
            <g id="a-link" transform="translate(766.500000, 443.750000) rotate(-180.000000) translate(-766.500000, -443.750000) translate(758.500000, 432.750000)" fill="#000000" fill-rule="nonzero">
                <path d="M15.989,14.103 C15.747,10.046 8.242,2.41 8,0.5 C7.758,2.409 0.253,10.045 0.011,14.103 C-0.158,16.971 1.706,18.16 3.401,18.16 C5.822,18.16 6.548,15.535 6.79,14.819 C6.79,14.58 7.274,14.58 7.274,14.819 C7.516,15.535 5.671,21.501 5.095,21.501 L10.906,21.501 C10.33,21.501 8.485,15.535 8.727,14.819 C8.727,14.58 9.212,14.58 9.212,14.819 C9.454,15.535 10.18,18.16 12.601,18.16 C14.295,18.159 16.158,16.971 15.989,14.103 Z" id="a"></path>
            </g>
            <g id="a-link" transform="translate(766.500000, 470.500000) rotate(-180.000000) translate(-766.500000, -470.500000) translate(758.500000, 459.500000)" fill="#000000" fill-rule="nonzero">
                <path d="M15.989,14.103 C15.747,10.046 8.242,2.41 8,0.5 C7.758,2.409 0.253,10.045 0.011,14.103 C-0.158,16.971 1.706,18.16 3.401,18.16 C5.822,18.16 6.548,15.535 6.79,14.819 C6.79,14.58 7.274,14.58 7.274,14.819 C7.516,15.535 5.671,21.501 5.095,21.501 L10.906,21.501 C10.33,21.501 8.485,15.535 8.727,14.819 C8.727,14.58 9.212,14.58 9.212,14.819 C9.454,15.535 10.18,18.16 12.601,18.16 C14.295,18.159 16.158,16.971 15.989,14.103 Z" id="a"></path>
            </g>
        </g>
    </g>
</svg>